<?xml version="1.0" standalone="no"?>
<!DOCTYPE svg PUBLIC "-//W3C//DTD SVG 20010904//EN"
 "http://www.w3.org/TR/2001/REC-SVG-20010904/DTD/svg10.dtd">
<svg version="1.0" xmlns="http://www.w3.org/2000/svg"
 width="300.000000pt" height="364.000000pt" viewBox="0 0 300.000000 364.000000"
 preserveAspectRatio="xMidYMid meet">

<g transform="translate(0.000000,364.000000) scale(0.100000,-0.100000)"
fill="#000000" stroke="none">
<path d="M662 3592 l-662 -2 0 -1208 0 -1207 40 -62 c74 -113 186 -196 301
-222 24 -6 177 -11 342 -11 l297 0 16 40 c9 22 36 57 60 78 116 102 276 75
368 -64 l36 -54 273 0 c298 0 368 9 467 57 114 55 217 190 240 314 10 54 14
601 5 611 -4 3 -38 -8 -78 -25 -56 -24 -87 -31 -142 -31 -70 -1 -152 21 -186
50 -37 33 -39 22 -39 -230 0 -151 -4 -255 -11 -275 -11 -32 -38 -46 -78 -39
-20 3 -22 10 -25 88 -11 217 -141 392 -346 462 -63 22 -77 23 -445 23 l-380 0
-3 -180 c-1 -99 0 -190 3 -202 l5 -23 343 0 342 -1 19 -25 c10 -14 20 -43 23
-64 5 -32 1 -43 -21 -65 l-26 -26 -408 3 c-395 3 -408 4 -447 25 -22 11 -50
32 -62 45 -37 39 -75 136 -84 212 -10 88 0 1598 11 1609 4 5 232 7 506 5 485
-4 501 -5 559 -27 122 -45 212 -142 255 -275 l19 -61 0 215 c1 241 -8 301 -59
381 -35 54 -85 96 -159 133 -65 33 -19 32 -869 28z"/>
<path d="M945 3040 c-240 -50 -406 -251 -406 -495 0 -199 99 -363 273 -451 96
-49 141 -54 450 -54 l288 0 0 204 0 205 -257 3 c-221 3 -263 5 -289 20 -44 24
-58 73 -34 118 21 39 50 40 797 40 704 0 725 -1 763 -20 22 -11 44 -29 50 -41
8 -14 11 -102 11 -261 0 -132 1 -244 4 -248 3 -5 36 8 75 28 62 31 77 35 144
35 58 -1 87 -6 130 -26 l56 -26 0 326 0 325 -32 62 c-46 86 -146 184 -233 227
l-70 34 -442 3 -443 3 0 -150 0 -151 -28 0 c-26 0 -28 3 -38 68 -13 82 -58
186 -92 213 -23 18 -42 19 -331 18 -168 -1 -324 -5 -346 -9z"/>
<path d="M2140 2274 c-84 -36 -124 -106 -118 -204 6 -115 71 -181 184 -188 79
-5 112 7 163 63 51 56 67 111 52 181 -28 125 -166 198 -281 148z"/>
<path d="M2735 2036 c-34 -15 -92 -76 -106 -113 -14 -37 -11 -140 5 -171 19
-37 75 -89 109 -101 76 -29 185 -4 235 53 20 24 22 36 22 145 l0 119 -32 28
c-18 15 -47 33 -65 41 -41 17 -129 16 -168 -1z"/>
<path d="M2768 1570 c-92 -28 -148 -101 -148 -195 0 -111 59 -185 161 -207 71
-14 127 1 180 49 l39 35 0 122 -1 121 -42 31 c-68 50 -125 63 -189 44z"/>
<path d="M2596 1138 c-3 -13 -6 -98 -6 -190 l0 -167 -553 -3 c-599 -3 -580 -1
-592 -58 -9 -40 -81 -119 -130 -141 -23 -11 -64 -19 -95 -19 -30 0 -60 -4 -67
-8 -29 -18 -43 -124 -43 -314 0 -103 3 -188 8 -188 4 0 21 31 39 69 42 89 106
154 191 194 l67 32 790 5 790 5 3 393 c1 215 0 392 -3 392 -3 0 -25 -10 -48
-22 -87 -44 -226 -34 -309 23 -33 24 -34 24 -42 -3z"/>
<path d="M1153 1001 c-84 -21 -133 -88 -136 -182 -2 -80 22 -132 82 -174 39
-27 50 -30 118 -29 66 1 78 5 111 31 87 69 107 189 46 275 -16 23 -43 50 -61
60 -36 22 -114 31 -160 19z"/>
</g>
</svg>
