<?xml version="1.0" standalone="no"?>
<!DOCTYPE svg PUBLIC "-//W3C//DTD SVG 20010904//EN"
 "http://www.w3.org/TR/2001/REC-SVG-20010904/DTD/svg10.dtd">
<svg version="1.0" xmlns="http://www.w3.org/2000/svg"
 width="400.000000pt" height="400.000000pt" viewBox="0 0 400.000000 400.000000"
 preserveAspectRatio="xMidYMid meet">

<g transform="translate(0.000000,400.000000) scale(0.100000,-0.100000)"
fill="#fff" stroke="#fff">
<path d="M1075 3801 l-590 -6 -3 -1234 -2 -1235 25 -38 c69 -105 187 -198 288
-229 55 -17 96 -19 378 -19 l316 0 7 -57 c12 -99 85 -194 161 -208 l40 -7 -35
-12 c-31 -10 -37 -17 -48 -61 -25 -101 -35 -236 -26 -370 8 -117 11 -130 28
-130 13 0 32 25 65 88 76 145 154 207 280 223 31 4 394 7 806 8 l750 1 3 404
c1 229 -2 409 -7 414 -5 5 -47 -4 -101 -23 -109 -37 -131 -36 -233 17 -101 52
-103 50 -99 -128 1 -79 -1 -160 -6 -179 l-8 -35 -519 -1 c-319 0 -536 -5 -562
-11 l-43 -10 0 37 0 38 303 4 c270 4 310 7 381 26 179 49 268 142 317 330 33
127 45 624 16 670 -12 18 -22 16 -105 -25 -65 -33 -86 -38 -142 -38 -53 1 -76
7 -128 34 -102 52 -97 63 -97 -209 0 -256 -9 -312 -51 -318 -19 -3 -22 3 -28
75 -12 151 -50 246 -128 329 -87 93 -176 133 -353 161 -113 17 -711 21 -728 4
-15 -15 -14 -392 1 -418 l13 -23 339 0 339 0 22 -31 c21 -30 21 -32 6 -65
l-17 -34 -405 0 c-435 0 -446 1 -492 52 -12 13 -34 57 -49 98 l-27 75 -8 770
c-4 424 -5 789 -2 813 l5 43 482 -6 c264 -3 498 -8 519 -11 42 -5 118 -40 157
-73 l25 -20 -262 -1 c-346 0 -475 -19 -590 -86 -135 -78 -244 -274 -245 -441
-1 -170 120 -371 271 -452 110 -58 148 -63 475 -68 198 -3 302 -1 309 6 13 13
13 387 -1 422 l-10 26 -196 -5 c-192 -5 -283 3 -342 30 -47 22 -24 87 36 101
14 3 338 7 722 8 670 2 697 1 730 -17 18 -11 42 -37 53 -59 18 -37 20 -60 20
-269 0 -163 3 -230 11 -233 7 -2 38 6 70 18 166 61 229 66 291 19 17 -12 39
-20 49 -18 18 3 19 20 22 351 l2 347 -26 53 c-38 74 -153 184 -238 227 l-70
35 -455 5 -456 5 -7 115 c-7 130 -13 154 -59 240 -39 74 -92 122 -179 164 -77
37 -25 35 -955 27z m902 -27 c113 -37 202 -122 244 -231 28 -76 46 -312 33
-434 l-10 -84 -13 45 c-35 119 -112 215 -216 266 l-60 29 -519 7 c-286 4 -522
6 -524 3 -16 -16 -18 -179 -12 -870 l6 -780 32 -79 c35 -90 70 -132 121 -146
21 -6 206 -10 443 -10 l408 0 14 23 c30 45 30 73 1 111 l-27 36 -339 0 c-202
0 -340 4 -344 9 -12 20 -17 171 -10 283 l7 116 226 6 c520 16 742 -40 864
-220 48 -71 77 -165 85 -276 l6 -89 36 3 c28 2 39 9 49 31 26 55 34 150 27
340 l-6 189 23 -7 c13 -4 46 -19 73 -33 40 -21 65 -26 121 -27 63 0 80 4 145
38 53 27 75 34 80 25 29 -46 14 -520 -21 -652 -36 -139 -95 -218 -203 -271
-109 -53 -203 -65 -507 -65 l-258 0 -21 34 c-26 41 -88 99 -131 121 -43 22
-120 30 -163 16 -53 -18 -82 -45 -119 -111 l-33 -60 -310 0 c-335 0 -376 5
-459 54 -61 36 -149 118 -185 173 l-31 46 0 1224 0 1223 573 3 c314 1 636 3
714 5 109 1 154 -2 190 -14z m3 -544 l137 0 48 -82 c37 -64 48 -94 52 -140 6
-60 22 -85 48 -74 12 4 15 30 15 151 l0 145 444 0 443 0 72 -36 c86 -43 171
-119 223 -198 l38 -59 0 -344 c0 -211 -4 -343 -10 -343 -5 0 -26 11 -46 25
-55 37 -127 34 -250 -10 -53 -19 -98 -35 -99 -35 -1 0 -2 98 -1 218 1 271 -10
314 -93 349 -47 20 -1426 20 -1474 -1 -45 -18 -59 -39 -55 -83 3 -36 6 -39 58
-58 49 -18 80 -20 283 -20 193 0 228 -2 231 -15 11 -38 17 -228 11 -308 l-7
-89 -182 -6 c-489 -17 -664 52 -788 309 -21 44 -44 110 -50 145 -9 57 -8 75
11 145 61 221 168 333 369 385 79 21 311 40 391 33 24 -2 106 -4 181 -4z m280
-246 c0 -21 -4 -33 -10 -29 -5 3 -10 19 -10 36 0 16 5 29 10 29 6 0 10 -16 10
-36z m922 -1681 c88 -47 150 -49 247 -9 36 14 66 26 68 26 2 0 3 -178 3 -395
l0 -394 -792 -3 c-901 -4 -843 2 -942 -89 -38 -35 -68 -77 -103 -142 l-48 -92
-9 144 c-7 119 -6 162 8 250 10 58 22 113 26 121 6 11 45 24 109 39 55 12 111
31 125 42 14 11 39 49 56 84 30 62 32 64 78 72 26 4 278 7 559 7 l513 -1 7 21
c4 11 7 93 6 180 -2 147 0 176 13 176 2 0 37 -17 76 -37z m-1459 -90 c-13 -2
-35 -2 -50 0 -16 2 -5 4 22 4 28 0 40 -2 28 -4z m-98 -13 c-3 -5 -12 -10 -18
-10 -7 0 -6 4 3 10 19 12 23 12 15 0z m156 -22 c54 -18 82 -42 112 -97 48 -89
31 -154 -61 -245 l-50 -49 -80 5 c-75 4 -81 6 -111 39 -46 49 -72 104 -78 163
-5 45 -2 57 28 104 20 32 47 61 68 72 41 22 121 26 172 8z m107 -330 c-8 -12
-25 -28 -39 -37 -18 -11 -16 -6 10 22 39 42 50 48 29 15z"/>
<path d="M2586 2438 c-71 -63 -86 -96 -86 -187 0 -68 1 -72 43 -123 82 -101
187 -125 287 -65 59 34 114 111 126 172 13 70 -38 167 -118 225 -37 27 -48 30
-117 30 l-76 0 -59 -52z m223 17 c63 -32 131 -136 131 -200 0 -10 -12 -42 -26
-72 -76 -155 -240 -177 -352 -47 -40 47 -42 52 -42 117 0 83 13 111 82 171 51
44 55 46 116 46 36 0 75 -6 91 -15z"/>
<path d="M3190 2206 c-76 -63 -90 -93 -90 -189 l0 -79 64 -67 65 -66 88 -3 88
-3 58 46 57 47 0 91 c-1 197 -44 255 -198 263 l-77 5 -55 -45z m232 -2 c55
-32 78 -91 78 -205 l0 -96 -49 -41 c-48 -41 -52 -42 -122 -42 -84 0 -114 15
-171 84 -36 42 -38 49 -38 115 0 89 11 112 79 167 56 45 56 45 123 41 40 -3
79 -12 100 -23z"/>
<path d="M3244 1771 c-12 -5 -48 -34 -80 -64 l-58 -54 -4 -94 -3 -94 38 -50
c52 -68 111 -98 180 -92 61 6 125 33 171 71 32 28 32 28 32 119 -1 147 -21
201 -89 241 -37 21 -153 32 -187 17z m147 -22 c81 -27 108 -84 109 -221 l0
-97 -32 -24 c-128 -96 -250 -86 -319 26 -30 48 -31 55 -27 132 l4 81 53 49
c29 28 63 53 75 57 35 10 101 9 137 -3z"/>
</g>
</svg>
